<mxfile host="app.diagrams.net" modified="2023-06-08T14:01:54.471Z" agent="Mozilla/5.0 (X11; Ubuntu; Linux x86_64; rv:109.0) Gecko/20100101 Firefox/113.0" version="21.3.4" etag="Tn0WKI9nFWmxzkfFGnBJ" type="github">
  <diagram name="Pagina-1" id="dei_RIvj0q74_Rys8apZ">
    <mxGraphModel>
      <root>
        <mxCell id="0" />
        <mxCell id="1" parent="0" />
      </root>
    </mxGraphModel>
  </diagram>
</mxfile>
